<svg id="41306384-1fb0-412b-b16e-e55c7d413e0e" data-name="Layer 1" xmlns="http://www.w3.org/2000/svg" viewBox="0 0 216 52">
  <title>Untitled-3</title>
  <path d="M11.73,36v.14c1.12,4.61,4.68,7.54,9.84,7.54,3.7,0,6.42-1,8.17-3.28H38.6C36,47,29.74,51.24,21.57,51.24,10.68,51.24,3,43.56,3,33.09s7.68-18.15,18.57-18.15S40,22.62,40,33.09V36Zm.21-6.77v.14H31.2v-.14c-1.33-4.19-4.82-6.77-9.63-6.77s-8.31,2.58-9.63,6.77M74.62,50.33V30.64c0-5.59,2.93-8,6.91-8s7,2.3,7,8V50.33h8.31V30.64c0-10.82-6.28-15.71-14.45-15.71-5.23,0-9.42,2.16-11.87,6.07h-.14c-2.51-3.91-6.7-6.07-11.87-6.07C50.33,14.94,44,19.82,44,30.64V50.33h8.31V30.64c0-5.66,2.93-8,7-8s7,2.37,7,8V50.33ZM100.87.76h8.31v19.9h.14c2.23-3.49,6.35-5.72,11.52-5.72,8.24,0,17,5.93,17,18.15,0,10.47-7.68,18.15-18.57,18.15S100.87,44,100.87,32.81Zm28.62,32.32c0-6.07-4.12-10.4-10.19-10.4S109.18,27,109.18,33.09s4,10.4,10.12,10.4,10.19-4.33,10.19-10.4m21,2.93v.14c1.12,4.61,4.68,7.54,9.84,7.54,3.7,0,6.42-1,8.17-3.28h8.86c-2.58,6.56-8.86,10.82-17,10.82-10.89,0-18.57-7.68-18.57-18.15s7.68-18.15,18.57-18.15,18.43,7.68,18.43,18.15V36Zm.21-6.77v.14h19.27v-.14c-1.33-4.19-4.82-6.77-9.63-6.77s-8.31,2.58-9.63,6.77M213,30.64v-.21c0-10.54-6.07-15.5-15.08-15.5s-15.15,5-15.15,15.36v20h8.31v-20c0-5.58,2.79-7.61,6.84-7.61s6.84,2,6.84,7.61v.35Z" fill="#e95223"/>
</svg>
